<svg id="Layer_1" data-name="Layer 1" xmlns="http://www.w3.org/2000/svg" viewBox="0 0 1080 1080"><defs><style>.cls-1{fill:#f7941d;}.cls-2{fill:#00aeef;}</style></defs><path class="cls-1" d="M415.2,662.23H640L561.08,929a211.28,211.28,0,0,1-235.66-37.62c-5.53.29-11.12.46-16.72.46C138.2,891.81,0,753.57,0,583.11,0,435.24,103.92,311.7,242.68,281.48c31.08-87.83,114.8-150.74,213.26-150.74a225.45,225.45,0,0,1,165.27,71.81Z"/><path class="cls-2" d="M1080,630.66a101.58,101.58,0,0,1-65.69,95A143.37,143.37,0,0,1,877,827.84h-1A170.54,170.54,0,0,1,648.25,907l161.1-357.29H584.15l81.64-277.23a225.85,225.85,0,0,1,12.88,45.24,170.33,170.33,0,0,1,185.59,96.8,143.38,143.38,0,0,1,177.52,136.81A101.3,101.3,0,0,1,1080,630.66Z"/></svg>