<svg xmlns="http://www.w3.org/2000/svg" viewBox="0 0 321.38 243.57"><defs><style>.cls-1{fill:#f7941d;}.cls-2{fill:#00aeef;}</style></defs><g id="Layer_2" data-name="Layer 2"><g id="Layer_1-2" data-name="Layer 1"><path class="cls-1" d="M123.55,158.16h66.91L167,237.54a62.89,62.89,0,0,1-70.12-11.2c-1.65.09-3.31.14-5,.14A91.87,91.87,0,0,1,72.22,44.86,67.3,67.3,0,0,1,184.86,21.37Z"/><path class="cls-2" d="M321.38,148.77A30.21,30.21,0,0,1,301.83,177,42.64,42.64,0,0,1,261,207.44h-.28A50.75,50.75,0,0,1,192.9,231l47.95-106.32h-67l24.29-82.5A66,66,0,0,1,202,55.64a51.5,51.5,0,0,1,9.1-.83,50.72,50.72,0,0,1,46.13,29.64,42.19,42.19,0,0,1,10.19-1.23A42.65,42.65,0,0,1,310,125.16,30.13,30.13,0,0,1,321.38,148.77Z"/></g></g></svg>