<svg xmlns="http://www.w3.org/2000/svg" viewBox="0 0 1022.86 243.57"><defs><style>.cls-1{fill:#231f20;}</style></defs><g id="Layer_2" data-name="Layer 2"><g id="Layer_1-2" data-name="Layer 1"><path class="cls-1" d="M123.55,158.16h66.91L167,237.54a62.89,62.89,0,0,1-70.12-11.2c-1.65.09-3.31.14-5,.14A91.87,91.87,0,0,1,72.22,44.86,67.3,67.3,0,0,1,184.86,21.37Z"/><path class="cls-1" d="M321.38,148.77A30.21,30.21,0,0,1,301.83,177,42.64,42.64,0,0,1,261,207.44h-.28A50.75,50.75,0,0,1,192.9,231l47.95-106.32h-67l24.29-82.5A66,66,0,0,1,202,55.64a51.5,51.5,0,0,1,9.1-.83,50.72,50.72,0,0,1,46.13,29.64,42.19,42.19,0,0,1,10.19-1.23A42.65,42.65,0,0,1,310,125.16,30.13,30.13,0,0,1,321.38,148.77Z"/><path class="cls-1" d="M440,213.14q-23.59,0-39.46-7t-24.1-18.28q-8.26-11.28-8.76-23.72a5.2,5.2,0,0,1,5.33-5.33h22.58a7.51,7.51,0,0,1,4.95,1.39,14.9,14.9,0,0,1,2.92,3.43,25.57,25.57,0,0,0,5.84,9.51,32,32,0,0,0,11.8,7.75q7.49,3,18.9,3,18.29,0,27.28-6.09t9-16.49a15.32,15.32,0,0,0-4.82-11.81q-4.82-4.42-14.84-8.12a263.08,263.08,0,0,0-26.52-7.74q-19-4.56-31.85-11t-19.29-16.36q-6.46-9.9-6.47-25.12a44.52,44.52,0,0,1,8-26.14q8-11.43,22.84-18t35.4-6.6q16.5,0,29.19,4.44a64.17,64.17,0,0,1,21.06,11.68A55.35,55.35,0,0,1,501.74,62a36.48,36.48,0,0,1,4.7,16.12,5.59,5.59,0,0,1-1.39,3.68,4.9,4.9,0,0,1-3.94,1.65h-23.6a8.94,8.94,0,0,1-4.06-1,7.45,7.45,0,0,1-3.3-3.81q-1.51-7.86-9.89-13.44t-21.58-5.59q-13.69,0-22.07,5.08t-8.38,15.73a17.07,17.07,0,0,0,4.19,11.8q4.18,4.71,13.45,8.25a250.05,250.05,0,0,0,24.49,7.61q21.57,4.83,35.27,11.17t20.05,16.11q6.35,9.78,6.34,24.75,0,16.74-9,28.55T477.76,206.8Q461.53,213.15,440,213.14Z"/><path class="cls-1" d="M547.3,210.61a6.06,6.06,0,0,1-6.09-6.09V39.06A6,6,0,0,1,547.3,33h23.85a5.78,5.78,0,0,1,4.44,1.77,6.14,6.14,0,0,1,1.65,4.32V204.52a6.09,6.09,0,0,1-1.65,4.31,5.78,5.78,0,0,1-4.44,1.78Z"/><path class="cls-1" d="M623.17,210.61a6.08,6.08,0,0,1-6.09-6.09V39.06A6.06,6.06,0,0,1,623.17,33h23.61a6,6,0,0,1,6.08,6.09V180.41h80.45a6.07,6.07,0,0,1,6.34,6.34v17.77a5.87,5.87,0,0,1-1.77,4.31,6.22,6.22,0,0,1-4.57,1.78Z"/><path class="cls-1" d="M780.76,210.61a6.08,6.08,0,0,1-6.09-6.09V64.18H727.72a6.06,6.06,0,0,1-6.09-6.09V39.31a6.18,6.18,0,0,1,1.78-4.57A5.87,5.87,0,0,1,727.72,33H857.14a6.07,6.07,0,0,1,6.35,6.34V58.09a5.89,5.89,0,0,1-1.77,4.32,6.22,6.22,0,0,1-4.58,1.77H810.45V204.52a5.84,5.84,0,0,1-1.78,4.31,6.18,6.18,0,0,1-4.56,1.78Z"/><path class="cls-1" d="M859.68,210.61a5.27,5.27,0,0,1-3.68-1.53,5,5,0,0,1-1.65-3.8,6.24,6.24,0,0,1,.51-2.29L916,39.31a9.52,9.52,0,0,1,2.92-4.44,8.67,8.67,0,0,1,6-1.9h27.66a8.23,8.23,0,0,1,5.84,1.9,12.36,12.36,0,0,1,3,4.44L1022.6,203a11.81,11.81,0,0,1,.26,2.29,5.13,5.13,0,0,1-1.53,3.8,4.85,4.85,0,0,1-3.55,1.53H995.7q-3.56,0-5.2-1.65a8.47,8.47,0,0,1-2.16-3.18l-11.93-31H901.05l-11.93,31A8.47,8.47,0,0,1,887,209q-1.65,1.65-5.2,1.65Zm50.25-65h57.6L938.6,67.23Z"/></g></g></svg>