<svg xmlns="http://www.w3.org/2000/svg" viewBox="0 0 967.54 257.5"><defs><style>.cls-1{fill:#fff;}</style></defs><g id="Layer_2" data-name="Layer 2"><g id="Layer_1-2" data-name="Layer 1"><path class="cls-1" d="M123.55,165.12h66.91L167,244.5a62.84,62.84,0,0,1-70.12-11.2c-1.65.09-3.31.14-5,.14A91.87,91.87,0,0,1,72.22,51.82,67.3,67.3,0,0,1,184.86,28.33Z"/><path class="cls-1" d="M321.38,155.73A30.21,30.21,0,0,1,301.83,184,42.64,42.64,0,0,1,261,214.4h-.28A50.75,50.75,0,0,1,192.9,238l47.95-106.32h-67l24.29-82.5A66.29,66.29,0,0,1,202,62.61a50.67,50.67,0,0,1,55.23,28.8,42.19,42.19,0,0,1,10.19-1.23A42.65,42.65,0,0,1,310,132.12,30.16,30.16,0,0,1,321.38,155.73Z"/><path class="cls-1" d="M433.85,167.29q-21.62,0-36.13-6.39t-22.07-16.73q-7.56-10.33-8-21.72a4.77,4.77,0,0,1,4.88-4.89h20.68a6.9,6.9,0,0,1,4.53,1.28,13.75,13.75,0,0,1,2.67,3.14,23.45,23.45,0,0,0,5.34,8.71,29.52,29.52,0,0,0,10.81,7.09q6.84,2.79,17.31,2.79,16.72,0,25-5.58t8.25-15.1a14,14,0,0,0-4.41-10.81q-4.43-4-13.59-7.43a240.51,240.51,0,0,0-24.29-7.09q-17.41-4.17-29.15-10.1T378,69.47q-5.93-9.06-5.93-23a40.7,40.7,0,0,1,7.32-23.93Q386.68,12.09,400.27,6t32.42-6a80.8,80.8,0,0,1,26.72,4.07,59,59,0,0,1,19.28,10.68,50.77,50.77,0,0,1,11.73,14.18,33.26,33.26,0,0,1,4.3,14.75,5.11,5.11,0,0,1-1.28,3.37,4.44,4.44,0,0,1-3.6,1.51H468.23a8.21,8.21,0,0,1-3.71-.93,6.86,6.86,0,0,1-3-3.49q-1.38-7.2-9.06-12.31t-19.74-5.11q-12.56,0-20.22,4.65t-7.66,14.4a15.62,15.62,0,0,0,3.83,10.81q3.83,4.29,12.31,7.55a231.31,231.31,0,0,0,22.42,7q19.75,4.41,32.3,10.22T494,96.08q5.81,8.94,5.81,22.65,0,15.33-8.25,26.14t-23.11,16.61Q453.59,167.29,433.85,167.29Z"/><path class="cls-1" d="M532.13,165a5.55,5.55,0,0,1-5.58-5.57V7.9A5.37,5.37,0,0,1,528.18,4a5.39,5.39,0,0,1,4-1.63H554A5.29,5.29,0,0,1,558,4a5.59,5.59,0,0,1,1.51,4V159.39a5.57,5.57,0,0,1-1.51,4A5.29,5.29,0,0,1,554,165Z"/><path class="cls-1" d="M601.6,165a5.55,5.55,0,0,1-5.58-5.57V7.9A5.37,5.37,0,0,1,597.65,4a5.39,5.39,0,0,1,4-1.63h21.61A5.38,5.38,0,0,1,627.15,4a5.37,5.37,0,0,1,1.63,4V137.31h73.65a5.57,5.57,0,0,1,5.81,5.81v16.27a5.38,5.38,0,0,1-1.62,4,5.69,5.69,0,0,1-4.19,1.62Z"/><path class="cls-1" d="M745.88,165a5.55,5.55,0,0,1-5.58-5.57V30.9h-43a5.55,5.55,0,0,1-5.58-5.58V8.13A5.65,5.65,0,0,1,693.37,4a5.39,5.39,0,0,1,4-1.63H815.81A5.7,5.7,0,0,1,820,4a5.68,5.68,0,0,1,1.62,4.18V25.32a5.4,5.4,0,0,1-1.62,4,5.69,5.69,0,0,1-4.19,1.62H773.07V159.39a5.39,5.39,0,0,1-1.63,4,5.69,5.69,0,0,1-4.19,1.62Z"/><path class="cls-1" d="M818.14,165a4.83,4.83,0,0,1-3.37-1.39,4.53,4.53,0,0,1-1.51-3.48,5.75,5.75,0,0,1,.46-2.1l56-149.86a8.66,8.66,0,0,1,2.67-4.06,8,8,0,0,1,5.46-1.75h25.32a7.54,7.54,0,0,1,5.35,1.75,11.4,11.4,0,0,1,2.79,4.06L967.3,158a11.28,11.28,0,0,1,.23,2.1,4.72,4.72,0,0,1-1.39,3.48,4.46,4.46,0,0,1-3.25,1.39H942.67q-3.25,0-4.76-1.51a7.51,7.51,0,0,1-2-2.9L925,132.2H856l-10.92,28.35a7.66,7.66,0,0,1-2,2.9c-1,1-2.59,1.51-4.76,1.51Zm46-59.48h52.74L890.4,33.69Z"/><path class="cls-1" d="M376.29,213.23a11.51,11.51,0,0,1-4.68-.85,7.28,7.28,0,0,1-2.91-2.22,5.15,5.15,0,0,1-1.07-2.9.66.66,0,0,1,.21-.47.7.7,0,0,1,.5-.2H370a.78.78,0,0,1,.58.19,1,1,0,0,1,.26.45,3.41,3.41,0,0,0,.78,1.52,4.72,4.72,0,0,0,1.77,1.25,7.21,7.21,0,0,0,2.93.5,6.8,6.8,0,0,0,4.06-1,3.09,3.09,0,0,0,1.3-2.61,2.47,2.47,0,0,0-.69-1.82,6,6,0,0,0-2.1-1.23c-.94-.36-2.16-.76-3.66-1.19a21.75,21.75,0,0,1-3.88-1.47,5.8,5.8,0,0,1-2.29-2,5.48,5.48,0,0,1-.76-3,5.36,5.36,0,0,1,.93-3.09,6.29,6.29,0,0,1,2.68-2.17,11.69,11.69,0,0,1,7.73-.27,7.4,7.4,0,0,1,2.49,1.41,6.72,6.72,0,0,1,1.51,1.89,4.71,4.71,0,0,1,.54,2,.7.7,0,0,1-.16.44.61.61,0,0,1-.51.21h-1.7a1.08,1.08,0,0,1-.47-.13.89.89,0,0,1-.37-.48,3.23,3.23,0,0,0-1.47-2.22,5.71,5.71,0,0,0-3.34-.89,6.29,6.29,0,0,0-3.38.8,2.72,2.72,0,0,0-1.3,2.5,2.68,2.68,0,0,0,.61,1.81,4.85,4.85,0,0,0,1.92,1.27,33.06,33.06,0,0,0,3.43,1.15,25.56,25.56,0,0,1,4.21,1.5,5.83,5.83,0,0,1,2.42,2,5.31,5.31,0,0,1,.79,3,5.66,5.66,0,0,1-1.06,3.45,6.64,6.64,0,0,1-3,2.18A12.1,12.1,0,0,1,376.29,213.23Z"/><path class="cls-1" d="M389.09,193.11a.72.72,0,0,1-.53-.21.71.71,0,0,1-.21-.53v-1.73a.72.72,0,0,1,.74-.74h2a.71.71,0,0,1,.53.21.72.72,0,0,1,.21.53v1.73a.72.72,0,0,1-.74.74Zm.26,19.8a.71.71,0,0,1-.53-.21.72.72,0,0,1-.21-.53V197a.72.72,0,0,1,.21-.53.71.71,0,0,1,.53-.21h1.54a.66.66,0,0,1,.51.21.75.75,0,0,1,.19.53v15.21a.75.75,0,0,1-.19.53.66.66,0,0,1-.51.21Z"/><path class="cls-1" d="M402.15,213.23a9.31,9.31,0,0,1-3.08-.45,7,7,0,0,1-2.09-1.09,5.44,5.44,0,0,1-1.2-1.29,2.44,2.44,0,0,1-.43-1,.58.58,0,0,1,.22-.55.84.84,0,0,1,.52-.19h1.41a.78.78,0,0,1,.3.05.94.94,0,0,1,.31.27,10,10,0,0,0,.93.9,4.28,4.28,0,0,0,1.26.74,5.38,5.38,0,0,0,1.88.29,5.24,5.24,0,0,0,2.7-.63,2,2,0,0,0,1.06-1.84,1.85,1.85,0,0,0-.44-1.29,3.67,3.67,0,0,0-1.54-.86,26.88,26.88,0,0,0-3-.81,11.19,11.19,0,0,1-3.05-1.1,4,4,0,0,1-1.6-1.58,4.35,4.35,0,0,1-.48-2.06,4.21,4.21,0,0,1,.7-2.3,5.2,5.2,0,0,1,2.07-1.81,7.41,7.41,0,0,1,3.42-.71,8.56,8.56,0,0,1,2.85.42,6.56,6.56,0,0,1,2,1A5.47,5.47,0,0,1,408,198.6a2.43,2.43,0,0,1,.41,1,.6.6,0,0,1-.19.53.73.73,0,0,1-.51.21h-1.35a.7.7,0,0,1-.37-.09,1.94,1.94,0,0,1-.27-.23,8.18,8.18,0,0,0-.76-.83,3.24,3.24,0,0,0-1.12-.69,5,5,0,0,0-1.81-.28,3.68,3.68,0,0,0-2.41.68,2.13,2.13,0,0,0-.8,1.7,1.82,1.82,0,0,0,.35,1.09,3.08,3.08,0,0,0,1.35.87,24.43,24.43,0,0,0,2.95.83,11.09,11.09,0,0,1,3.34,1.12,4,4,0,0,1,2.24,3.79,4.24,4.24,0,0,1-.78,2.47,5.35,5.35,0,0,1-2.31,1.78A9.5,9.5,0,0,1,402.15,213.23Z"/><path class="cls-1" d="M419.22,212.91a5.51,5.51,0,0,1-2.92-.69,4,4,0,0,1-1.64-2,8,8,0,0,1-.51-3v-8.47h-2.5a.72.72,0,0,1-.74-.74V197a.72.72,0,0,1,.21-.53.71.71,0,0,1,.53-.21h2.5v-5.35a.72.72,0,0,1,.74-.74h1.5a.72.72,0,0,1,.74.74v5.35h4a.72.72,0,0,1,.74.74v1.09a.71.71,0,0,1-.21.53.72.72,0,0,1-.53.21h-4V207a4.58,4.58,0,0,0,.52,2.37,1.93,1.93,0,0,0,1.82.87h2a.74.74,0,0,1,.53.2.72.72,0,0,1,.21.53v1.16a.72.72,0,0,1-.21.53.71.71,0,0,1-.53.21Z"/><path class="cls-1" d="M431.89,213.23a6.94,6.94,0,0,1-5.26-2,8.38,8.38,0,0,1-2.15-5.57c0-.27,0-.63,0-1.07s0-.8,0-1.08a9.31,9.31,0,0,1,1.06-4,6.64,6.64,0,0,1,2.55-2.65,7.48,7.48,0,0,1,3.8-.93,7.66,7.66,0,0,1,4.09,1,6.56,6.56,0,0,1,2.52,2.92,10.52,10.52,0,0,1,.86,4.43v.54a.7.7,0,0,1-.2.55.75.75,0,0,1-.53.19h-11.1v.29a6.66,6.66,0,0,0,.57,2.45,4.67,4.67,0,0,0,1.48,1.85,3.79,3.79,0,0,0,2.31.7,4.51,4.51,0,0,0,1.92-.35,4.7,4.7,0,0,0,1.26-.79,4.57,4.57,0,0,0,.64-.65,1.52,1.52,0,0,1,.45-.5,1.22,1.22,0,0,1,.51-.08h1.54a.79.79,0,0,1,.53.18.53.53,0,0,1,.18.49,2.61,2.61,0,0,1-.52,1.17,6.17,6.17,0,0,1-1.38,1.37,7.42,7.42,0,0,1-2.18,1.1A9.2,9.2,0,0,1,431.89,213.23Zm-4.36-9.88h8.79v-.1a6,6,0,0,0-.53-2.57,4.28,4.28,0,0,0-1.53-1.78,4.17,4.17,0,0,0-2.37-.66,4.12,4.12,0,0,0-2.36.66,4.19,4.19,0,0,0-1.49,1.78,6.17,6.17,0,0,0-.51,2.57Z"/><path class="cls-1" d="M444,212.91a.72.72,0,0,1-.53-.21.72.72,0,0,1-.2-.53V197a.72.72,0,0,1,.2-.53.72.72,0,0,1,.53-.21h1.45a.72.72,0,0,1,.53.21.72.72,0,0,1,.2.53v1.12A5.5,5.5,0,0,1,448,196.5a5.6,5.6,0,0,1,2.69-.6,5.24,5.24,0,0,1,5.13,2.95,5.53,5.53,0,0,1,2.15-2.14,6.33,6.33,0,0,1,3.21-.81,6.09,6.09,0,0,1,3,.77,5.36,5.36,0,0,1,2.15,2.33,8.55,8.55,0,0,1,.79,3.9v9.27a.72.72,0,0,1-.74.74H464.9a.72.72,0,0,1-.74-.74v-9a6.48,6.48,0,0,0-.51-2.83,3,3,0,0,0-1.38-1.44,4.26,4.26,0,0,0-1.89-.42,3.87,3.87,0,0,0-1.7.42,3.31,3.31,0,0,0-1.43,1.44,6,6,0,0,0-.56,2.83v9a.72.72,0,0,1-.21.53.71.71,0,0,1-.53.21h-1.51a.72.72,0,0,1-.53-.21.76.76,0,0,1-.2-.53v-9a6.16,6.16,0,0,0-.55-2.83,3.17,3.17,0,0,0-1.41-1.44,4.16,4.16,0,0,0-1.83-.42,3.87,3.87,0,0,0-1.7.42,3.31,3.31,0,0,0-1.43,1.44,5.93,5.93,0,0,0-.56,2.79v9a.72.72,0,0,1-.21.53.71.71,0,0,1-.53.21Z"/><path class="cls-1" d="M480.75,212.91a.71.71,0,0,1-.55-.21.8.8,0,0,1-.19-.53v-21a.78.78,0,0,1,.19-.53.71.71,0,0,1,.55-.21h1.7a.72.72,0,0,1,.53.21.71.71,0,0,1,.21.53v21a.72.72,0,0,1-.74.74Z"/><path class="cls-1" d="M489.09,212.91a.72.72,0,0,1-.53-.21.72.72,0,0,1-.2-.53V197a.72.72,0,0,1,.2-.53.72.72,0,0,1,.53-.21h1.51a.72.72,0,0,1,.74.74v1.41a6.51,6.51,0,0,1,2.1-1.78,6.77,6.77,0,0,1,3.26-.69,6.52,6.52,0,0,1,3.54.92,5.71,5.71,0,0,1,2.2,2.53,9.06,9.06,0,0,1,.74,3.77v9a.76.76,0,0,1-.2.53.64.64,0,0,1-.51.21h-1.6a.71.71,0,0,1-.53-.21.72.72,0,0,1-.21-.53v-8.89a5.18,5.18,0,0,0-1.09-3.51,4,4,0,0,0-3.21-1.27,4.17,4.17,0,0,0-3.19,1.27,4.89,4.89,0,0,0-1.21,3.51v8.89a.72.72,0,0,1-.2.53.72.72,0,0,1-.53.21Z"/><path class="cls-1" d="M510,212.91a.71.71,0,0,1-.53-.21.72.72,0,0,1-.21-.53V198.79h-2.73a.72.72,0,0,1-.53-.21.71.71,0,0,1-.21-.53V197a.72.72,0,0,1,.74-.74h2.73v-1.6a7.1,7.1,0,0,1,.54-2.87,4.05,4.05,0,0,1,1.75-1.91,6.61,6.61,0,0,1,3.23-.67h1.92a.66.66,0,0,1,.51.2.76.76,0,0,1,.2.53V191a.74.74,0,0,1-.2.53.64.64,0,0,1-.51.21h-1.86a2.31,2.31,0,0,0-2,.79,3.89,3.89,0,0,0-.55,2.26v1.44h4.14a.65.65,0,0,1,.51.21.76.76,0,0,1,.2.53v1.09a.74.74,0,0,1-.2.53.65.65,0,0,1-.51.21h-4.14v13.38a.72.72,0,0,1-.21.53.71.71,0,0,1-.53.21Z"/><path class="cls-1" d="M526.4,213.23a8.14,8.14,0,0,1-4.07-.93,6.18,6.18,0,0,1-2.5-2.59,8.9,8.9,0,0,1-1-3.77c0-.36,0-.82,0-1.39s0-1,0-1.36a8.74,8.74,0,0,1,1-3.79,6.42,6.42,0,0,1,2.52-2.57,9.26,9.26,0,0,1,8.09,0A6.33,6.33,0,0,1,533,199.4a8.6,8.6,0,0,1,1,3.79c0,.34,0,.79,0,1.36s0,1,0,1.39a8.75,8.75,0,0,1-1,3.77,6.24,6.24,0,0,1-2.5,2.59A8.15,8.15,0,0,1,526.4,213.23Zm0-2.47a4.13,4.13,0,0,0,3.18-1.27,5.55,5.55,0,0,0,1.28-3.71c0-.32,0-.72,0-1.21s0-.9,0-1.22a5.57,5.57,0,0,0-1.28-3.71,4.16,4.16,0,0,0-3.18-1.27,4.22,4.22,0,0,0-3.19,1.27,5.46,5.46,0,0,0-1.27,3.71c0,.32,0,.72,0,1.22s0,.89,0,1.21a5.44,5.44,0,0,0,1.27,3.71A4.18,4.18,0,0,0,526.4,210.76Z"/><path class="cls-1" d="M538.72,212.91a.72.72,0,0,1-.53-.21.76.76,0,0,1-.2-.53V197a.8.8,0,0,1,.2-.54.7.7,0,0,1,.53-.23h1.48a.73.73,0,0,1,.54.23.74.74,0,0,1,.23.54v1.42a4.09,4.09,0,0,1,1.76-1.64,6.19,6.19,0,0,1,2.7-.55h1.28a.67.67,0,0,1,.52.21.8.8,0,0,1,.19.53v1.32a.73.73,0,0,1-.19.51.69.69,0,0,1-.52.19h-1.92a3.66,3.66,0,0,0-2.73,1,3.77,3.77,0,0,0-1,2.75v9.43a.7.7,0,0,1-.23.53.76.76,0,0,1-.54.21Z"/><path class="cls-1" d="M550.91,212.91a.69.69,0,0,1-.52-.21.72.72,0,0,1-.21-.53V197a.72.72,0,0,1,.21-.53.69.69,0,0,1,.52-.21h1.45a.72.72,0,0,1,.74.74v1.12A5.38,5.38,0,0,1,555,196.5a5.62,5.62,0,0,1,2.69-.6,5.26,5.26,0,0,1,5.14,2.95,5.4,5.4,0,0,1,2.15-2.14,6.32,6.32,0,0,1,3.2-.81,6.07,6.07,0,0,1,3,.77,5.36,5.36,0,0,1,2.15,2.33,8.55,8.55,0,0,1,.79,3.9v9.27a.72.72,0,0,1-.21.53.71.71,0,0,1-.53.21h-1.51a.69.69,0,0,1-.52-.21.72.72,0,0,1-.21-.53v-9a6.47,6.47,0,0,0-.52-2.83,3,3,0,0,0-1.38-1.44,4.23,4.23,0,0,0-1.89-.42,3.87,3.87,0,0,0-1.7.42,3.31,3.31,0,0,0-1.43,1.44,6,6,0,0,0-.56,2.83v9a.72.72,0,0,1-.21.53.71.71,0,0,1-.53.21h-1.5a.69.69,0,0,1-.53-.21.72.72,0,0,1-.21-.53v-9a6,6,0,0,0-.55-2.83,3.17,3.17,0,0,0-1.41-1.44,4.16,4.16,0,0,0-1.83-.42,3.91,3.91,0,0,0-1.7.42,3.31,3.31,0,0,0-1.43,1.44,5.93,5.93,0,0,0-.56,2.79v9a.72.72,0,0,1-.21.53.71.71,0,0,1-.53.21Z"/><path class="cls-1" d="M583.35,213.23a6.69,6.69,0,0,1-2.92-.64,5.68,5.68,0,0,1-2.12-1.74,4.08,4.08,0,0,1-.8-2.47,4.16,4.16,0,0,1,1.8-3.53,10.39,10.39,0,0,1,4.68-1.73l4.78-.67v-.93a3.22,3.22,0,0,0-.88-2.41,4,4,0,0,0-2.87-.87,4.25,4.25,0,0,0-2.33.58,3.08,3.08,0,0,0-1.23,1.48.69.69,0,0,1-.68.48h-1.44a.65.65,0,0,1-.53-.21.73.73,0,0,1-.18-.5,2.76,2.76,0,0,1,.37-1.18,5,5,0,0,1,1.14-1.38,6.63,6.63,0,0,1,2-1.14,8.24,8.24,0,0,1,2.94-.47,9.27,9.27,0,0,1,3.24.5,5.22,5.22,0,0,1,2.07,1.33,5.14,5.14,0,0,1,1.09,1.89,7,7,0,0,1,.34,2.15v10.4a.72.72,0,0,1-.74.74h-1.48a.7.7,0,0,1-.54-.21.75.75,0,0,1-.19-.53v-1.38a6.37,6.37,0,0,1-1.13,1.14,6.21,6.21,0,0,1-1.76.93A8.13,8.13,0,0,1,583.35,213.23Zm.67-2.41a5.25,5.25,0,0,0,2.41-.56,4,4,0,0,0,1.72-1.75,6.42,6.42,0,0,0,.62-3v-.9l-3.72.54a8.7,8.7,0,0,0-3.43,1.08,2.23,2.23,0,0,0-1.16,1.91,2.17,2.17,0,0,0,.53,1.49,3.09,3.09,0,0,0,1.35.88A5.07,5.07,0,0,0,584,210.82Z"/><path class="cls-1" d="M602.18,213.23a9.35,9.35,0,0,1-3.08-.45,7,7,0,0,1-2.08-1.09,5.3,5.3,0,0,1-1.21-1.29,2.59,2.59,0,0,1-.43-1,.58.58,0,0,1,.22-.55.88.88,0,0,1,.52-.19h1.41a.78.78,0,0,1,.3.05.94.94,0,0,1,.31.27q.42.45.93.9a4.21,4.21,0,0,0,1.27.74,5.32,5.32,0,0,0,1.87.29,5.24,5.24,0,0,0,2.7-.63,2,2,0,0,0,1.06-1.84,1.85,1.85,0,0,0-.44-1.29,3.6,3.6,0,0,0-1.54-.86,25.75,25.75,0,0,0-3-.81,11.19,11.19,0,0,1-3.05-1.1,4.11,4.11,0,0,1-1.6-1.58,4.35,4.35,0,0,1-.48-2.06,4.14,4.14,0,0,1,.71-2.3,5.2,5.2,0,0,1,2.07-1.81,7.34,7.34,0,0,1,3.41-.71,8.63,8.63,0,0,1,2.86.42,6.63,6.63,0,0,1,2,1A5.25,5.25,0,0,1,608,198.6a2.47,2.47,0,0,1,.42,1,.61.61,0,0,1-.2.53.73.73,0,0,1-.51.21h-1.35a.7.7,0,0,1-.37-.09,2.76,2.76,0,0,1-.27-.23,7,7,0,0,0-.75-.83,3.38,3.38,0,0,0-1.13-.69,5,5,0,0,0-1.81-.28,3.64,3.64,0,0,0-2.4.68,2.11,2.11,0,0,0-.81,1.7,1.76,1.76,0,0,0,.36,1.09,3,3,0,0,0,1.34.87,24.7,24.7,0,0,0,3,.83,11,11,0,0,1,3.33,1.12,4.44,4.44,0,0,1,1.73,1.64,4.31,4.31,0,0,1,.52,2.15,4.25,4.25,0,0,1-.79,2.47,5.24,5.24,0,0,1-2.31,1.78A9.47,9.47,0,0,1,602.18,213.23Z"/><path class="cls-1" d="M613.25,193.11a.72.72,0,0,1-.53-.21.71.71,0,0,1-.21-.53v-1.73a.72.72,0,0,1,.74-.74h2a.72.72,0,0,1,.74.74v1.73a.71.71,0,0,1-.21.53.72.72,0,0,1-.53.21Zm.26,19.8a.71.71,0,0,1-.53-.21.72.72,0,0,1-.21-.53V197a.72.72,0,0,1,.21-.53.71.71,0,0,1,.53-.21h1.54a.66.66,0,0,1,.51.21.75.75,0,0,1,.19.53v15.21a.75.75,0,0,1-.19.53.66.66,0,0,1-.51.21Z"/><path class="cls-1" d="M626.47,212.91a.62.62,0,0,1-.45-.2.58.58,0,0,1-.19-.44,2.38,2.38,0,0,1,0-.36l7.95-20.76a1.38,1.38,0,0,1,.36-.51,1,1,0,0,1,.67-.19H637a1,1,0,0,1,.66.19,1.3,1.3,0,0,1,.37.51L646,211.91a1,1,0,0,1,.07.36.61.61,0,0,1-.19.44.62.62,0,0,1-.45.2h-1.64a.72.72,0,0,1-.56-.2,1,1,0,0,1-.24-.35l-1.77-4.55H630.67l-1.76,4.55a.75.75,0,0,1-.23.35.78.78,0,0,1-.58.2Zm5.13-7.86h8.66l-4.33-11.39Z"/><path class="cls-1" d="M649.82,212.91a.69.69,0,0,1-.52-.21.72.72,0,0,1-.21-.53v-21.3a.71.71,0,0,1,.21-.53.69.69,0,0,1,.52-.21h1.51a.72.72,0,0,1,.74.74V202l6.32-5.26a4.05,4.05,0,0,1,.59-.43,1.47,1.47,0,0,1,.69-.12h1.7a.66.66,0,0,1,.49.2.67.67,0,0,1,.19.48.75.75,0,0,1-.08.29,1.14,1.14,0,0,1-.31.32l-7.41,6.16,8.21,8q.39.32.39.57a.62.62,0,0,1-.19.48.66.66,0,0,1-.48.2h-1.67a1.59,1.59,0,0,1-.71-.12,2.54,2.54,0,0,1-.58-.43l-7.15-6.83v6.64a.72.72,0,0,1-.21.53.71.71,0,0,1-.53.21Z"/><path class="cls-1" d="M669.94,213.23a6.69,6.69,0,0,1-2.92-.64,5.68,5.68,0,0,1-2.12-1.74,4.08,4.08,0,0,1-.8-2.47,4.16,4.16,0,0,1,1.8-3.53,10.39,10.39,0,0,1,4.68-1.73l4.78-.67v-.93a3.22,3.22,0,0,0-.88-2.41,4,4,0,0,0-2.87-.87,4.25,4.25,0,0,0-2.33.58,3.08,3.08,0,0,0-1.23,1.48.69.69,0,0,1-.68.48h-1.44a.65.65,0,0,1-.53-.21.73.73,0,0,1-.18-.5,2.76,2.76,0,0,1,.37-1.18,5,5,0,0,1,1.14-1.38,6.63,6.63,0,0,1,2-1.14,8.24,8.24,0,0,1,2.94-.47,9.27,9.27,0,0,1,3.24.5,5.22,5.22,0,0,1,2.07,1.33,5.14,5.14,0,0,1,1.09,1.89,7,7,0,0,1,.34,2.15v10.4a.72.72,0,0,1-.74.74h-1.48a.7.7,0,0,1-.54-.21.75.75,0,0,1-.19-.53v-1.38a6.37,6.37,0,0,1-1.13,1.14,6.21,6.21,0,0,1-1.76.93A8.13,8.13,0,0,1,669.94,213.23Zm.67-2.41a5.25,5.25,0,0,0,2.41-.56,4,4,0,0,0,1.72-1.75,6.42,6.42,0,0,0,.62-3v-.9l-3.72.54a8.7,8.7,0,0,0-3.43,1.08,2.23,2.23,0,0,0-1.16,1.91,2.17,2.17,0,0,0,.53,1.49,3.09,3.09,0,0,0,1.35.88A5.07,5.07,0,0,0,670.61,210.82Z"/><path class="cls-1" d="M689.09,213.23a6.89,6.89,0,0,1-3.05-.63,5.85,5.85,0,0,1-2.1-1.7,7.51,7.51,0,0,1-1.22-2.45,12.55,12.55,0,0,1-.46-2.92c0-.34,0-.67,0-1s0-.62,0-1a12.29,12.29,0,0,1,.46-2.88,7.87,7.87,0,0,1,1.22-2.48,5.87,5.87,0,0,1,2.1-1.71,6.89,6.89,0,0,1,3.05-.63,6.61,6.61,0,0,1,3.15.68,6.77,6.77,0,0,1,2,1.66v-7.37a.72.72,0,0,1,.74-.74h1.54a.72.72,0,0,1,.53.21.71.71,0,0,1,.21.53v21.3a.72.72,0,0,1-.74.74h-1.45a.7.7,0,0,1-.54-.21.75.75,0,0,1-.19-.53v-1.35a6.48,6.48,0,0,1-2.09,1.72A6.69,6.69,0,0,1,689.09,213.23Zm.68-2.6a4.1,4.1,0,0,0,2.56-.74,4.57,4.57,0,0,0,1.45-1.88,6.34,6.34,0,0,0,.51-2.32c0-.34,0-.76,0-1.24s0-.89,0-1.23a5.73,5.73,0,0,0-.53-2.22,4.48,4.48,0,0,0-1.47-1.79,4.94,4.94,0,0,0-5.12,0,4,4,0,0,0-1.38,1.9,8.54,8.54,0,0,0-.48,2.51c0,.63,0,1.25,0,1.87a8.54,8.54,0,0,0,.48,2.51,4,4,0,0,0,1.38,1.9A4.24,4.24,0,0,0,689.77,210.63Z"/><path class="cls-1" d="M708.73,213.23a6.93,6.93,0,0,1-5.26-2,8.33,8.33,0,0,1-2.15-5.57,10.38,10.38,0,0,1,0-1.07,10.72,10.72,0,0,1,0-1.08,9.31,9.31,0,0,1,1-4,6.64,6.64,0,0,1,2.55-2.65,7.52,7.52,0,0,1,3.81-.93,7.69,7.69,0,0,1,4.09,1,6.56,6.56,0,0,1,2.52,2.92,10.67,10.67,0,0,1,.86,4.43v.54a.71.71,0,0,1-.21.55.73.73,0,0,1-.53.19h-11.1v.29a6.88,6.88,0,0,0,.58,2.45,4.58,4.58,0,0,0,1.48,1.85,3.79,3.79,0,0,0,2.31.7,4.51,4.51,0,0,0,1.92-.35,4.63,4.63,0,0,0,1.25-.79,4.07,4.07,0,0,0,.64-.65,1.78,1.78,0,0,1,.45-.5,1.31,1.31,0,0,1,.52-.08h1.54a.79.79,0,0,1,.53.18.52.52,0,0,1,.17.49,2.47,2.47,0,0,1-.51,1.17,6.17,6.17,0,0,1-1.38,1.37,7.55,7.55,0,0,1-2.18,1.1A9.2,9.2,0,0,1,708.73,213.23Zm-4.37-9.88h8.79v-.1a5.88,5.88,0,0,0-.53-2.57,4.26,4.26,0,0,0-1.52-1.78,4.17,4.17,0,0,0-2.37-.66,4.12,4.12,0,0,0-2.36.66,4.19,4.19,0,0,0-1.49,1.78,6,6,0,0,0-.52,2.57Z"/><path class="cls-1" d="M720.79,212.91a.72.72,0,0,1-.74-.74V197a.72.72,0,0,1,.74-.74h1.44a.71.71,0,0,1,.53.21.72.72,0,0,1,.21.53v1.12a5.38,5.38,0,0,1,1.86-1.58,5.67,5.67,0,0,1,2.7-.6,5.25,5.25,0,0,1,5.13,2.95,5.46,5.46,0,0,1,2.15-2.14,6.33,6.33,0,0,1,3.21-.81,6.09,6.09,0,0,1,3,.77A5.36,5.36,0,0,1,743.2,199a8.68,8.68,0,0,1,.79,3.9v9.27a.72.72,0,0,1-.74.74h-1.51a.72.72,0,0,1-.74-.74v-9a6.48,6.48,0,0,0-.51-2.83,3,3,0,0,0-1.38-1.44,4.29,4.29,0,0,0-1.89-.42,3.84,3.84,0,0,0-1.7.42,3.26,3.26,0,0,0-1.43,1.44,5.9,5.9,0,0,0-.56,2.83v9a.72.72,0,0,1-.74.74h-1.51a.72.72,0,0,1-.74-.74v-9a6.17,6.17,0,0,0-.54-2.83,3.27,3.27,0,0,0-1.41-1.44,4.16,4.16,0,0,0-1.83-.42,3.87,3.87,0,0,0-1.7.42,3.26,3.26,0,0,0-1.43,1.44,5.81,5.81,0,0,0-.56,2.79v9a.72.72,0,0,1-.74.74Z"/><path class="cls-1" d="M749.05,193.11a.69.69,0,0,1-.52-.21.71.71,0,0,1-.21-.53v-1.73a.72.72,0,0,1,.21-.53.69.69,0,0,1,.52-.21h2a.72.72,0,0,1,.53.21.76.76,0,0,1,.2.53v1.73a.74.74,0,0,1-.2.53.72.72,0,0,1-.53.21Zm.26,19.8a.72.72,0,0,1-.74-.74V197a.72.72,0,0,1,.74-.74h1.54a.65.65,0,0,1,.51.21.76.76,0,0,1,.2.53v15.21a.76.76,0,0,1-.2.53.65.65,0,0,1-.51.21Z"/><path class="cls-1" d="M757.11,212.91a.71.71,0,0,1-.53-.21.72.72,0,0,1-.21-.53v-21.3a.72.72,0,0,1,.74-.74h1.5a.72.72,0,0,1,.74.74V202l6.32-5.26a4,4,0,0,1,.6-.43,1.47,1.47,0,0,1,.69-.12h1.7a.66.66,0,0,1,.48.2.63.63,0,0,1,.19.48.75.75,0,0,1-.08.29,1.09,1.09,0,0,1-.3.32l-7.42,6.16,8.22,8c.25.21.38.4.38.57a.62.62,0,0,1-.19.48.66.66,0,0,1-.48.2h-1.67a1.59,1.59,0,0,1-.71-.12,2.33,2.33,0,0,1-.57-.43l-7.16-6.83v6.64a.72.72,0,0,1-.21.53.71.71,0,0,1-.53.21Z"/><path class="cls-1" d="M785.69,212.91a.72.72,0,0,1-.53-.21.72.72,0,0,1-.2-.53V193.3h-6.17a.7.7,0,0,1-.73-.73v-1.35a.75.75,0,0,1,.21-.56.69.69,0,0,1,.52-.21h15.47a.76.76,0,0,1,.56.21.75.75,0,0,1,.21.56v1.35a.72.72,0,0,1-.21.53.8.8,0,0,1-.56.2h-6.13v18.87a.72.72,0,0,1-.21.53.75.75,0,0,1-.56.21Z"/><path class="cls-1" d="M798.59,193.11a.72.72,0,0,1-.53-.21.71.71,0,0,1-.21-.53v-1.73a.72.72,0,0,1,.74-.74h2a.72.72,0,0,1,.74.74v1.73a.71.71,0,0,1-.21.53.72.72,0,0,1-.53.21Zm.26,19.8a.71.71,0,0,1-.53-.21.72.72,0,0,1-.21-.53V197a.72.72,0,0,1,.21-.53.71.71,0,0,1,.53-.21h1.54a.66.66,0,0,1,.51.21.75.75,0,0,1,.19.53v15.21a.75.75,0,0,1-.19.53.66.66,0,0,1-.51.21Z"/><path class="cls-1" d="M806.61,212.91a.72.72,0,0,1-.74-.74V197a.72.72,0,0,1,.74-.74h1.51a.72.72,0,0,1,.74.74v1.41a6.51,6.51,0,0,1,2.1-1.78,6.75,6.75,0,0,1,3.25-.69,6.56,6.56,0,0,1,3.55.92,5.77,5.77,0,0,1,2.2,2.53,9.06,9.06,0,0,1,.73,3.77v9a.75.75,0,0,1-.19.53.66.66,0,0,1-.51.21h-1.61a.72.72,0,0,1-.53-.21.76.76,0,0,1-.2-.53v-8.89a5.23,5.23,0,0,0-1.09-3.51,4,4,0,0,0-3.21-1.27,4.2,4.2,0,0,0-3.2,1.27,4.88,4.88,0,0,0-1.2,3.51v8.89a.72.72,0,0,1-.21.53.71.71,0,0,1-.53.21Z"/><path class="cls-1" d="M832.15,220a9.55,9.55,0,0,1-3.58-.57,6.31,6.31,0,0,1-2.18-1.4,5.13,5.13,0,0,1-1.12-1.63,4.3,4.3,0,0,1-.37-1.3.59.59,0,0,1,.21-.55.74.74,0,0,1,.52-.22h1.54a.91.91,0,0,1,.49.12,1.1,1.1,0,0,1,.32.55,6,6,0,0,0,.57,1.07,3.21,3.21,0,0,0,1.19,1,4.79,4.79,0,0,0,2.25.43,6.92,6.92,0,0,0,2.53-.4,2.87,2.87,0,0,0,1.56-1.41,6.06,6.06,0,0,0,.53-2.77v-2.19a6.15,6.15,0,0,1-2,1.66,6.75,6.75,0,0,1-3.15.65,6.94,6.94,0,0,1-3.08-.62,5.85,5.85,0,0,1-2.1-1.7,7.46,7.46,0,0,1-1.22-2.46,11.79,11.79,0,0,1-.46-2.88,17.42,17.42,0,0,1,0-1.77,11.79,11.79,0,0,1,.46-2.88,7.66,7.66,0,0,1,1.22-2.48,5.87,5.87,0,0,1,2.1-1.71,6.94,6.94,0,0,1,3.08-.63,6.35,6.35,0,0,1,3.19.72,7,7,0,0,1,2.07,1.75V197a.76.76,0,0,1,.21-.54.7.7,0,0,1,.53-.23h1.48a.79.79,0,0,1,.77.77v15.56a9.36,9.36,0,0,1-.73,3.82,5.53,5.53,0,0,1-2.37,2.63A8.81,8.81,0,0,1,832.15,220Zm-.07-9.49a4.23,4.23,0,0,0,2.59-.74,4.39,4.39,0,0,0,1.44-1.86,6.37,6.37,0,0,0,.5-2.28q0-.45,0-1.11c0-.43,0-.8,0-1.1a6.37,6.37,0,0,0-.5-2.28,4.39,4.39,0,0,0-1.44-1.86,4.23,4.23,0,0,0-2.59-.74,4.16,4.16,0,0,0-2.56.72,4,4,0,0,0-1.38,1.9,8.54,8.54,0,0,0-.48,2.51,16.07,16.07,0,0,0,0,1.7,8.54,8.54,0,0,0,.48,2.52,4,4,0,0,0,1.38,1.9A4.16,4.16,0,0,0,832.08,210.47Z"/><path class="cls-1" d="M845.24,212.91a.71.71,0,0,1-.53-.21.72.72,0,0,1-.21-.53v-21.3a.72.72,0,0,1,.74-.74h1.5a.72.72,0,0,1,.74.74V202l6.32-5.26a4,4,0,0,1,.6-.43,1.44,1.44,0,0,1,.69-.12h1.7a.66.66,0,0,1,.48.2.63.63,0,0,1,.19.48.75.75,0,0,1-.08.29,1.09,1.09,0,0,1-.3.32l-7.42,6.16,8.22,8c.25.21.38.4.38.57a.62.62,0,0,1-.19.48.66.66,0,0,1-.48.2h-1.67a1.59,1.59,0,0,1-.71-.12,2.33,2.33,0,0,1-.57-.43l-7.16-6.83v6.64a.72.72,0,0,1-.21.53.71.71,0,0,1-.53.21Z"/><path class="cls-1" d="M865.35,213.23a6.69,6.69,0,0,1-2.92-.64,5.57,5.57,0,0,1-2.11-1.74,4,4,0,0,1-.81-2.47,4.16,4.16,0,0,1,1.8-3.53,10.43,10.43,0,0,1,4.68-1.73l4.78-.67v-.93a3.22,3.22,0,0,0-.88-2.41,4,4,0,0,0-2.87-.87,4.25,4.25,0,0,0-2.33.58,3.13,3.13,0,0,0-1.23,1.48.68.68,0,0,1-.67.48h-1.45a.66.66,0,0,1-.53-.21.72.72,0,0,1-.17-.5,2.62,2.62,0,0,1,.37-1.18,4.81,4.81,0,0,1,1.13-1.38,6.57,6.57,0,0,1,2-1.14,8.14,8.14,0,0,1,2.93-.47,9.19,9.19,0,0,1,3.24.5,5.22,5.22,0,0,1,2.07,1.33,5.14,5.14,0,0,1,1.09,1.89,7,7,0,0,1,.34,2.15v10.4a.72.72,0,0,1-.21.53.71.71,0,0,1-.53.21h-1.47a.71.71,0,0,1-.55-.21.75.75,0,0,1-.19-.53v-1.38a5.82,5.82,0,0,1-2.89,2.07A8.13,8.13,0,0,1,865.35,213.23Zm.68-2.41a5.24,5.24,0,0,0,2.4-.56,4,4,0,0,0,1.72-1.75,6.3,6.3,0,0,0,.62-3v-.9l-3.72.54a8.7,8.7,0,0,0-3.43,1.08,2.23,2.23,0,0,0-1.16,1.91,2.17,2.17,0,0,0,.53,1.49,3.21,3.21,0,0,0,1.35.88A5.13,5.13,0,0,0,866,210.82Z"/><path class="cls-1" d="M884.76,212.91a5.51,5.51,0,0,1-2.92-.69,4,4,0,0,1-1.63-2,7.78,7.78,0,0,1-.52-3v-8.47h-2.5a.72.72,0,0,1-.53-.21.71.71,0,0,1-.21-.53V197a.72.72,0,0,1,.74-.74h2.5v-5.35a.71.71,0,0,1,.21-.53.72.72,0,0,1,.53-.21h1.51a.72.72,0,0,1,.53.21.71.71,0,0,1,.21.53v5.35h4a.69.69,0,0,1,.52.21.72.72,0,0,1,.21.53v1.09a.71.71,0,0,1-.21.53.69.69,0,0,1-.52.21h-4V207a4.69,4.69,0,0,0,.51,2.37,1.94,1.94,0,0,0,1.83.87h2a.69.69,0,0,1,.73.73v1.16a.76.76,0,0,1-.2.53.72.72,0,0,1-.53.21Z"/><path class="cls-1" d="M906.29,213.23a11.6,11.6,0,0,1-4.69-.85,7.17,7.17,0,0,1-2.9-2.22,5.15,5.15,0,0,1-1.07-2.9.66.66,0,0,1,.21-.47.68.68,0,0,1,.49-.2H900a.78.78,0,0,1,.58.19,1,1,0,0,1,.25.45,3.54,3.54,0,0,0,.79,1.52,4.68,4.68,0,0,0,1.76,1.25,7.26,7.26,0,0,0,2.94.5,6.8,6.8,0,0,0,4.06-1,3.11,3.11,0,0,0,1.3-2.61,2.47,2.47,0,0,0-.69-1.82,6,6,0,0,0-2.1-1.23c-1-.36-2.17-.76-3.66-1.19a21.45,21.45,0,0,1-3.88-1.47,5.84,5.84,0,0,1-2.3-2,5.56,5.56,0,0,1-.75-3,5.36,5.36,0,0,1,.93-3.09,6.29,6.29,0,0,1,2.68-2.17,11.69,11.69,0,0,1,7.73-.27,7.5,7.5,0,0,1,2.49,1.41,6.51,6.51,0,0,1,1.5,1.89,4.59,4.59,0,0,1,.55,2,.7.7,0,0,1-.16.44.61.61,0,0,1-.51.21h-1.7a1.08,1.08,0,0,1-.47-.13.89.89,0,0,1-.37-.48,3.27,3.27,0,0,0-1.47-2.22,5.71,5.71,0,0,0-3.34-.89,6.35,6.35,0,0,0-3.39.8,3,3,0,0,0-.69,4.31,5,5,0,0,0,1.93,1.27,33.06,33.06,0,0,0,3.43,1.15,26.25,26.25,0,0,1,4.21,1.5,5.89,5.89,0,0,1,2.42,2,5.31,5.31,0,0,1,.78,3,5.6,5.6,0,0,1-1.06,3.45,6.55,6.55,0,0,1-3,2.18A12.14,12.14,0,0,1,906.29,213.23Z"/><path class="cls-1" d="M919.76,212.91a.7.7,0,0,1-.54-.21.75.75,0,0,1-.19-.53v-21a.73.73,0,0,1,.19-.53.7.7,0,0,1,.54-.21h1.7a.67.67,0,0,1,.52.21.73.73,0,0,1,.19.53v18.93h10.68a.74.74,0,0,1,.55.2.8.8,0,0,1,.19.57v1.28a.75.75,0,0,1-.19.53.71.71,0,0,1-.55.21Z"/><path class="cls-1" d="M938.92,212.91a.71.71,0,0,1-.53-.21.72.72,0,0,1-.21-.53V193.3H932a.76.76,0,0,1-.53-.2.72.72,0,0,1-.21-.53v-1.35a.75.75,0,0,1,.21-.56.72.72,0,0,1,.53-.21h15.46a.73.73,0,0,1,.56.21.75.75,0,0,1,.21.56v1.35a.72.72,0,0,1-.21.53.77.77,0,0,1-.56.2h-6.13v18.87a.72.72,0,0,1-.2.53.76.76,0,0,1-.56.21Z"/><path class="cls-1" d="M948,212.91a.69.69,0,0,1-.64-.64,1.59,1.59,0,0,1,0-.36l7.95-20.76a1.36,1.36,0,0,1,.35-.51,1,1,0,0,1,.68-.19h2.18a1,1,0,0,1,.66.19,1.3,1.3,0,0,1,.37.51l7.92,20.76a1.27,1.27,0,0,1,.07.36.59.59,0,0,1-.2.44.62.62,0,0,1-.45.2h-1.63a.7.7,0,0,1-.56-.2,1.21,1.21,0,0,1-.25-.35l-1.76-4.55H952.17l-1.77,4.55a.66.66,0,0,1-.22.35.78.78,0,0,1-.58.2Zm5.14-7.86h8.66l-4.33-11.39Z"/><path class="cls-1" d="M376.29,251.73a11.51,11.51,0,0,1-4.68-.85,7.28,7.28,0,0,1-2.91-2.22,5.15,5.15,0,0,1-1.07-2.9.66.66,0,0,1,.21-.47.7.7,0,0,1,.5-.2H370a.78.78,0,0,1,.58.19,1,1,0,0,1,.26.45,3.41,3.41,0,0,0,.78,1.52,4.72,4.72,0,0,0,1.77,1.25,7.38,7.38,0,0,0,2.93.5,6.8,6.8,0,0,0,4.06-1,3.09,3.09,0,0,0,1.3-2.61,2.47,2.47,0,0,0-.69-1.82,6,6,0,0,0-2.1-1.23c-.94-.37-2.16-.76-3.66-1.19a21.75,21.75,0,0,1-3.88-1.47,5.8,5.8,0,0,1-2.29-2,5.48,5.48,0,0,1-.76-3,5.39,5.39,0,0,1,.93-3.1,6.34,6.34,0,0,1,2.68-2.16,10.08,10.08,0,0,1,4.25-.8,10.19,10.19,0,0,1,3.48.53,7.4,7.4,0,0,1,2.49,1.41,6.72,6.72,0,0,1,1.51,1.89,4.67,4.67,0,0,1,.54,2,.7.7,0,0,1-.16.44.61.61,0,0,1-.51.21h-1.7a1.08,1.08,0,0,1-.47-.13.89.89,0,0,1-.37-.48,3.23,3.23,0,0,0-1.47-2.22,5.71,5.71,0,0,0-3.34-.9,6.29,6.29,0,0,0-3.38.81,2.71,2.71,0,0,0-1.3,2.5,2.68,2.68,0,0,0,.61,1.81,5,5,0,0,0,1.92,1.27,33.06,33.06,0,0,0,3.43,1.15,24.67,24.67,0,0,1,4.21,1.5,5.83,5.83,0,0,1,2.42,2,5.31,5.31,0,0,1,.79,3,5.66,5.66,0,0,1-1.06,3.45,6.64,6.64,0,0,1-3,2.18A12.31,12.31,0,0,1,376.29,251.73Z"/><path class="cls-1" d="M395.25,251.73a6.94,6.94,0,0,1-5.26-2,8.43,8.43,0,0,1-2.15-5.57c0-.27,0-.63,0-1.07s0-.8,0-1.08a9.41,9.41,0,0,1,1.06-4,6.64,6.64,0,0,1,2.55-2.65,8.43,8.43,0,0,1,7.89.1,6.56,6.56,0,0,1,2.52,2.92,10.52,10.52,0,0,1,.87,4.43v.54a.71.71,0,0,1-.21.55.8.8,0,0,1-.53.19h-11.1v.29a6.52,6.52,0,0,0,.58,2.45,4.56,4.56,0,0,0,1.47,1.85,3.79,3.79,0,0,0,2.31.7,4.76,4.76,0,0,0,1.93-.35,5.07,5.07,0,0,0,1.25-.79,5.18,5.18,0,0,0,.64-.65,1.52,1.52,0,0,1,.45-.5A1.29,1.29,0,0,1,400,247h1.54a.82.82,0,0,1,.53.17.55.55,0,0,1,.18.5,2.47,2.47,0,0,1-.51,1.17,6.63,6.63,0,0,1-1.38,1.37,7.74,7.74,0,0,1-2.19,1.1A9.15,9.15,0,0,1,395.25,251.73Zm-4.36-9.89h8.79v-.09a6,6,0,0,0-.53-2.57,4.11,4.11,0,0,0-3.9-2.44,4.14,4.14,0,0,0-2.36.66,4.19,4.19,0,0,0-1.49,1.78,6.17,6.17,0,0,0-.51,2.57Z"/><path class="cls-1" d="M412.67,251.73a6.89,6.89,0,0,1-3.05-.63,5.85,5.85,0,0,1-2.1-1.7A7.61,7.61,0,0,1,406.3,247a12.55,12.55,0,0,1-.46-2.92c0-.35,0-.67,0-1s0-.62,0-1a12.46,12.46,0,0,1,.46-2.89,7.81,7.81,0,0,1,1.22-2.47,5.77,5.77,0,0,1,2.1-1.71,6.89,6.89,0,0,1,3.05-.63,6.32,6.32,0,0,1,5.2,2.34v-7.38a.69.69,0,0,1,.21-.52.71.71,0,0,1,.53-.21h1.54a.72.72,0,0,1,.53.21.69.69,0,0,1,.21.52v21.31a.72.72,0,0,1-.74.74H418.7a.7.7,0,0,1-.54-.21.75.75,0,0,1-.19-.53v-1.35a6.48,6.48,0,0,1-2.09,1.72A6.69,6.69,0,0,1,412.67,251.73Zm.68-2.6a4.1,4.1,0,0,0,2.56-.74,4.57,4.57,0,0,0,1.45-1.88,6.34,6.34,0,0,0,.51-2.32c0-.34,0-.76,0-1.24s0-.89,0-1.23a5.73,5.73,0,0,0-.53-2.22,4.48,4.48,0,0,0-1.47-1.79,4.94,4.94,0,0,0-5.12,0,4,4,0,0,0-1.38,1.9,8.54,8.54,0,0,0-.48,2.51q0,.93,0,1.86a8.54,8.54,0,0,0,.48,2.52,4.07,4.07,0,0,0,1.38,1.9A4.24,4.24,0,0,0,413.35,249.13Z"/><path class="cls-1" d="M432.31,251.73a6.93,6.93,0,0,1-5.26-2,8.33,8.33,0,0,1-2.15-5.57,10.38,10.38,0,0,1,0-1.07,10.72,10.72,0,0,1,0-1.08,9.27,9.27,0,0,1,1.05-4,6.64,6.64,0,0,1,2.55-2.65,8.46,8.46,0,0,1,7.9.1,6.56,6.56,0,0,1,2.52,2.92,10.67,10.67,0,0,1,.86,4.43v.54a.71.71,0,0,1-.21.55.78.78,0,0,1-.53.19h-11.1v.29a6.93,6.93,0,0,0,.58,2.45,4.58,4.58,0,0,0,1.48,1.85,3.79,3.79,0,0,0,2.31.7,4.67,4.67,0,0,0,1.92-.35,4.89,4.89,0,0,0,1.25-.79,4.54,4.54,0,0,0,.64-.65,1.78,1.78,0,0,1,.45-.5,1.31,1.31,0,0,1,.52-.08h1.54a.84.84,0,0,1,.53.17.55.55,0,0,1,.17.5,2.47,2.47,0,0,1-.51,1.17,6.17,6.17,0,0,1-1.38,1.37,7.81,7.81,0,0,1-2.18,1.1A9.2,9.2,0,0,1,432.31,251.73Zm-4.37-9.89h8.79v-.09a5.88,5.88,0,0,0-.53-2.57,4.26,4.26,0,0,0-1.52-1.78,4.17,4.17,0,0,0-2.37-.66,4.12,4.12,0,0,0-2.36.66,4.19,4.19,0,0,0-1.49,1.78,6,6,0,0,0-.52,2.57Z"/><path class="cls-1" d="M444.37,251.41a.72.72,0,0,1-.74-.74V235.49a.76.76,0,0,1,.21-.54.7.7,0,0,1,.53-.23h1.48a.79.79,0,0,1,.77.77v1.41a4,4,0,0,1,1.76-1.63,6,6,0,0,1,2.7-.55h1.28a.66.66,0,0,1,.51.21.75.75,0,0,1,.19.53v1.32a.65.65,0,0,1-.7.7h-1.93a3.65,3.65,0,0,0-2.72,1,3.73,3.73,0,0,0-1,2.75v9.43a.69.69,0,0,1-.22.53.79.79,0,0,1-.55.21Z"/><path class="cls-1" d="M460.22,251.73a6.55,6.55,0,0,1-2.92-.65,5.57,5.57,0,0,1-2.12-1.73,4.08,4.08,0,0,1-.8-2.47,4.16,4.16,0,0,1,1.8-3.53,10.39,10.39,0,0,1,4.68-1.73l4.78-.67V240a3.22,3.22,0,0,0-.88-2.41,4,4,0,0,0-2.87-.87,4.23,4.23,0,0,0-2.33.58,3.08,3.08,0,0,0-1.23,1.48.69.69,0,0,1-.68.48h-1.44a.65.65,0,0,1-.53-.21.73.73,0,0,1-.18-.5,2.76,2.76,0,0,1,.37-1.18A4.89,4.89,0,0,1,457,236a6.51,6.51,0,0,1,2-1.14,8.2,8.2,0,0,1,2.94-.47,9.27,9.27,0,0,1,3.24.5,4.92,4.92,0,0,1,3.16,3.22,7.26,7.26,0,0,1,.34,2.15v10.4a.72.72,0,0,1-.74.74h-1.48a.7.7,0,0,1-.54-.21.76.76,0,0,1-.2-.53v-1.38a6,6,0,0,1-1.12,1.14,6.21,6.21,0,0,1-1.76.93A8.13,8.13,0,0,1,460.22,251.73Zm.67-2.41a5.25,5.25,0,0,0,2.41-.56A4,4,0,0,0,465,247a6.45,6.45,0,0,0,.62-3v-.9l-3.72.54a8.7,8.7,0,0,0-3.43,1.08,2.23,2.23,0,0,0-1.16,1.91,2.17,2.17,0,0,0,.53,1.49,3.09,3.09,0,0,0,1.35.88A5,5,0,0,0,460.89,249.32Z"/><path class="cls-1" d="M470.87,257.5a.72.72,0,0,1-.53-.21.71.71,0,0,1-.21-.53v-1.09a.72.72,0,0,1,.74-.74h.45a2.73,2.73,0,0,0,1.7-.43,2.08,2.08,0,0,0,.72-1.14,6.47,6.47,0,0,0,.18-1.6v-16.3a.76.76,0,0,1,.2-.53.72.72,0,0,1,.53-.21h1.58a.72.72,0,0,1,.53.21.76.76,0,0,1,.2.53v16.33a7.81,7.81,0,0,1-.52,3,4.17,4.17,0,0,1-1.72,2,6.22,6.22,0,0,1-3.24.72Zm3.53-25.89a.72.72,0,0,1-.74-.74v-1.73a.72.72,0,0,1,.21-.53.71.71,0,0,1,.53-.21h2.05a.79.79,0,0,1,.55.21.69.69,0,0,1,.22.53v1.73a.68.68,0,0,1-.22.53.79.79,0,0,1-.55.21Z"/><path class="cls-1" d="M486.4,251.73a6.52,6.52,0,0,1-2.92-.65,5.57,5.57,0,0,1-2.12-1.73,4.08,4.08,0,0,1-.8-2.47,4.18,4.18,0,0,1,1.79-3.53,10.43,10.43,0,0,1,4.69-1.73l4.78-.67V240a3.22,3.22,0,0,0-.88-2.41,4,4,0,0,0-2.87-.87,4.23,4.23,0,0,0-2.33.58,3.16,3.16,0,0,0-1.24,1.48.67.67,0,0,1-.67.48h-1.44a.65.65,0,0,1-.53-.21.73.73,0,0,1-.18-.5,2.62,2.62,0,0,1,.37-1.18,4.89,4.89,0,0,1,1.14-1.38,6.51,6.51,0,0,1,2-1.14,8.16,8.16,0,0,1,2.94-.47,9.27,9.27,0,0,1,3.24.5,5.19,5.19,0,0,1,2.07,1.33,5.28,5.28,0,0,1,1.09,1.89,7.26,7.26,0,0,1,.34,2.15v10.4a.72.72,0,0,1-.74.74h-1.48a.69.69,0,0,1-.54-.21.76.76,0,0,1-.2-.53v-1.38a6,6,0,0,1-1.12,1.14,6.21,6.21,0,0,1-1.76.93A8.18,8.18,0,0,1,486.4,251.73Zm.67-2.41a5.25,5.25,0,0,0,2.41-.56,4,4,0,0,0,1.71-1.75,6.32,6.32,0,0,0,.63-3v-.9l-3.72.54a8.81,8.81,0,0,0-3.44,1.08,2.24,2.24,0,0,0-1.15,1.91,2.17,2.17,0,0,0,.53,1.49,3.09,3.09,0,0,0,1.35.88A5,5,0,0,0,487.07,249.32Z"/><path class="cls-1" d="M505.81,251.41a5.51,5.51,0,0,1-2.92-.69,4,4,0,0,1-1.64-2,8.05,8.05,0,0,1-.51-3v-8.47h-2.5a.69.69,0,0,1-.53-.21.71.71,0,0,1-.21-.53v-1.09a.72.72,0,0,1,.21-.53.69.69,0,0,1,.53-.21h2.5v-5.36a.69.69,0,0,1,.21-.52.71.71,0,0,1,.53-.21H503a.71.71,0,0,1,.53.21.69.69,0,0,1,.21.52v5.36h4a.72.72,0,0,1,.74.74v1.09a.71.71,0,0,1-.21.53.72.72,0,0,1-.53.21h-4v8.24a4.7,4.7,0,0,0,.51,2.38,2,2,0,0,0,1.83.86h2a.72.72,0,0,1,.74.74v1.16a.72.72,0,0,1-.74.74Z"/></g></g></svg>